<?xml version="1.0" standalone="no"?>
<!DOCTYPE svg PUBLIC "-//W3C//DTD SVG 20010904//EN"
 "http://www.w3.org/TR/2001/REC-SVG-20010904/DTD/svg10.dtd">
<svg version="1.0" xmlns="http://www.w3.org/2000/svg"
 width="567.000000pt" height="567.000000pt" viewBox="0 0 567.000000 567.000000"
 preserveAspectRatio="xMidYMid meet">

<g transform="translate(0.000000,567.000000) scale(0.100000,-0.100000)"
fill="#000000" stroke="none">
<path d="M2035 5013 c-54 -5 -134 -32 -167 -55 -22 -15 -28 -27 -28 -58 0 -33
6 -44 46 -79 l46 -41 -26 -10 c-15 -5 -35 -10 -45 -10 -10 0 -64 -14 -122 -31
-113 -33 -288 -113 -406 -184 -40 -25 -77 -45 -80 -45 -9 0 -105 -61 -125 -79
-9 -9 -32 -27 -52 -41 -19 -14 -43 -39 -52 -56 -15 -28 -15 -33 -1 -61 20 -38
72 -83 97 -83 17 0 14 -11 -26 -97 -203 -432 -284 -750 -284 -1113 0 -304 59
-582 131 -621 24 -13 65 0 115 37 l31 22 47 -166 c73 -255 145 -440 266 -682
132 -264 134 -267 222 -269 30 -1 41 5 66 34 l29 36 63 -88 c151 -209 357
-436 449 -494 40 -26 46 -27 70 -15 14 8 35 24 45 35 l20 22 69 -68 c57 -57
227 -278 227 -296 0 -3 22 -41 48 -84 27 -43 61 -102 77 -130 15 -29 31 -53
35 -53 5 0 36 48 70 108 102 174 203 321 295 425 73 82 89 96 98 83 16 -20 60
-36 101 -36 28 0 48 14 120 81 99 93 249 268 351 412 l70 98 22 -27 c11 -15
38 -33 60 -40 35 -12 41 -12 76 12 20 13 51 46 67 72 52 81 186 361 243 507
52 130 136 402 152 488 6 33 25 53 25 26 0 -5 25 -21 55 -35 55 -25 56 -25 87
-7 36 21 58 76 88 223 54 267 44 603 -26 883 -42 166 -138 443 -183 524 -6 10
-28 57 -49 104 l-39 86 54 17 c40 13 56 24 64 42 34 91 -28 151 -345 333 -169
97 -274 139 -436 177 -58 14 -111 27 -117 29 -8 3 4 22 32 51 25 25 48 56 51
68 9 36 -13 76 -50 91 -90 38 -306 38 -485 0 -76 -16 -314 -83 -390 -110 -24
-8 -53 -15 -66 -15 -12 0 -101 25 -199 55 -265 81 -449 112 -581 98z m345
-210 c52 -13 151 -42 220 -64 188 -60 224 -61 400 -6 202 63 251 76 344 93 45
8 84 14 88 14 4 0 -4 -16 -17 -36 -29 -42 -31 -64 -10 -103 18 -37 64 -54 206
-81 289 -54 377 -85 607 -217 l112 -65 -25 -20 c-42 -33 -34 -68 63 -265 256
-520 338 -909 281 -1333 -14 -107 -15 -108 -47 -77 -52 49 -120 58 -155 19 -9
-9 -27 -69 -42 -132 -81 -356 -170 -611 -313 -895 -30 -60 -36 -67 -43 -49
-11 30 -57 64 -88 64 -41 0 -66 -24 -133 -123 -83 -124 -212 -295 -293 -390
l-67 -79 -22 21 c-14 13 -36 21 -58 21 -76 0 -327 -230 -466 -427 -38 -54 -74
-108 -81 -120 -6 -13 -15 -23 -19 -23 -4 0 -29 35 -57 78 -109 168 -251 322
-398 433 -88 67 -132 76 -173 38 l-22 -21 -81 99 c-45 54 -123 156 -174 227
-162 226 -181 250 -210 260 -37 14 -77 -2 -103 -41 l-21 -32 -66 137 c-131
276 -205 491 -272 792 -33 147 -41 166 -75 180 -40 16 -84 4 -125 -34 l-34
-33 -5 26 c-37 186 -33 501 8 696 49 235 158 527 288 775 69 132 76 171 36
205 l-27 23 142 80 c207 116 314 154 582 203 126 23 188 46 205 78 18 34 11
78 -17 111 l-27 32 45 -7 c24 -4 87 -18 139 -32z"/>
<path d="M2065 4104 c-111 -24 -227 -85 -298 -157 -34 -34 -71 -79 -82 -99
-10 -21 -32 -43 -47 -49 -43 -18 -109 -88 -135 -146 -51 -111 -53 -249 -7
-486 45 -232 98 -345 192 -407 49 -32 128 -60 173 -60 15 0 63 -23 111 -53 47
-29 105 -61 130 -70 l46 -18 -38 -66 c-22 -36 -46 -97 -55 -134 -20 -91 -19
-231 3 -291 36 -100 122 -184 213 -208 36 -10 37 -12 43 -69 9 -81 57 -175
105 -205 20 -13 66 -34 103 -46 79 -25 98 -44 216 -217 42 -62 80 -113 83
-113 4 0 35 42 70 93 34 50 84 120 111 154 46 58 55 64 117 83 37 11 86 33
108 49 52 38 93 119 100 200 3 35 11 61 17 61 6 0 38 13 71 29 142 67 212 219
186 404 -13 95 -40 172 -79 229 l-30 44 63 28 c34 15 92 47 128 70 47 31 80
45 116 49 72 9 165 53 206 98 75 83 126 232 161 474 39 263 -7 426 -144 514
-28 17 -63 52 -81 81 -67 103 -189 186 -332 227 -51 14 -98 18 -234 17 -185 0
-292 -17 -467 -73 l-88 -29 -88 28 c-159 52 -275 71 -442 76 -115 3 -173 0
-225 -12z m370 -128 c109 -19 231 -51 315 -82 l70 -26 123 40 c162 54 259 73
398 79 162 8 309 -28 395 -96 23 -18 20 -18 -224 -24 -136 -3 -339 -13 -452
-22 -211 -18 -306 -16 -695 15 -60 5 -193 9 -294 9 -202 1 -206 3 -112 55 115
62 302 82 476 52z m50 -297 c144 -17 493 -16 685 1 91 8 269 15 395 15 269 0
323 -10 386 -74 66 -66 75 -164 34 -386 -43 -232 -79 -310 -159 -345 -60 -27
-138 -33 -252 -20 -266 29 -408 112 -509 300 -61 112 -110 177 -154 207 -46
31 -130 32 -177 2 -40 -24 -102 -110 -165 -224 -77 -141 -177 -215 -356 -261
-76 -20 -126 -26 -223 -27 -117 -2 -129 0 -175 24 -65 33 -98 87 -130 211 -34
138 -58 321 -50 388 16 126 70 174 235 204 45 8 513 -3 615 -15z m363 -476
c10 -16 41 -70 68 -121 103 -198 256 -309 498 -361 l81 -18 -85 -32 c-47 -18
-100 -39 -118 -47 l-33 -14 76 -86 c42 -47 88 -110 101 -139 29 -63 44 -171
32 -234 -23 -127 -146 -200 -264 -157 -22 8 -113 57 -204 110 -91 53 -171 96
-178 96 -7 0 -97 -48 -199 -107 -186 -108 -187 -108 -253 -108 -56 0 -73 4
-109 28 -83 55 -112 174 -76 312 20 74 43 111 127 204 38 41 65 78 61 82 -5 4
-44 22 -88 39 -44 17 -93 37 -110 45 -30 14 -30 14 -4 14 52 2 187 43 269 84
107 52 213 150 260 239 59 113 111 198 120 198 5 0 17 -12 28 -27z m123 -1238
c71 -42 151 -84 177 -94 45 -18 47 -20 46 -59 -1 -66 -21 -99 -77 -127 -28
-14 -58 -25 -67 -25 -36 0 -109 -61 -168 -138 l-61 -81 -44 62 c-55 77 -111
128 -157 145 -106 40 -125 49 -142 73 -22 29 -38 91 -31 118 3 10 20 23 41 30
20 6 102 49 182 95 80 47 151 83 158 81 8 -3 72 -39 143 -80z"/>
<path d="M2697 2640 c-106 -13 -131 -50 -83 -121 30 -43 84 -73 104 -57 7 7 6
-2 -5 -19 -21 -38 -11 -54 56 -84 38 -17 52 -19 82 -10 72 22 107 68 77 100
-11 11 -10 13 2 9 41 -14 120 66 120 121 0 27 -5 34 -32 46 -42 17 -233 26
-321 15z"/>
</g>
</svg>
